<svg id="Слой_1" data-name="Слой 1" xmlns="http://www.w3.org/2000/svg" viewBox="0 0 201.7 74"><defs><style>.cls-1{fill:#ff5e16;}.cls-2{fill:none;stroke:#ff5e16;stroke-miterlimit:10;stroke-width:14px;}</style></defs><path class="cls-1" d="M316.83,273.76H309v13.82h-19V273.76H261.46V259.6l29.69-43.41H309v43.17h7.86Zm-26.9-14.4v-8.31q0-2.34.17-6.32a41,41,0,0,1,.27-4.17h-.54a51.06,51.06,0,0,1-3.76,7l-7.91,11.77Z" transform="translate(-261.46 -215)"/><path class="cls-1" d="M463.16,273.76H455.3v13.82h-19V273.76H407.79V259.6l29.69-43.41H455.3v43.17h7.86Zm-26.9-14.4v-8.31c0-1.56.05-3.67.17-6.32a37.73,37.73,0,0,1,.27-4.17h-.54a52.17,52.17,0,0,1-3.76,7l-7.91,11.77Z" transform="translate(-261.46 -215)"/><circle class="cls-2" cx="101.54" cy="37" r="30"/><line class="cls-2" x1="123.14" y1="14.8" x2="78.74" y2="59.2"/></svg>