<svg id="Слой_1" data-name="Слой 1" xmlns="http://www.w3.org/2000/svg" viewBox="0 0 460.4 74"><defs><style>.cls-1{fill:#ff5e16;}.cls-2{fill:none;stroke:#ff5e16;stroke-miterlimit:10;stroke-width:14px;}</style></defs><path class="cls-1" d="M317.44,287.58H292.15l-26.08-50.29h-.44q.93,11.86.93,18.11v32.18H249.47V216.19h25.2l26,49.61h.29q-.68-10.78-.68-17.33V216.19h17.19Z" transform="translate(-249.47 -215)"/><path class="cls-1" d="M482.77,287.58h-25.3L431.4,237.29H431q.93,11.86.93,18.11v32.18H414.8V216.19H440l26,49.61h.29q-.67-10.78-.68-17.33V216.19h17.19Z" transform="translate(-249.47 -215)"/><path class="cls-1" d="M542,287.58l-3.51-13.38H515.29l-3.62,13.38H490.48l23.29-71.68H539.5l23.59,71.68Zm-7.52-29.2-3.07-11.72q-1.08-3.9-2.61-10.11t-2-8.88q-.43,2.49-1.73,8.2t-5.74,22.51Z" transform="translate(-249.47 -215)"/><path class="cls-1" d="M601.91,287.58l-14.6-51.42h-.44q1,13.14,1,20.41v31H570.8V216.19h25.69l14.89,50.69h.39l14.6-50.69H652.1v71.39H634.38v-31.3c0-1.63,0-3.43.07-5.42s.27-6.85.66-14.6h-.44l-14.4,51.32Z" transform="translate(-249.47 -215)"/><path class="cls-1" d="M709.87,287.58H667.48V216.19h42.39v15.48h-23.1V242.9h21.39v15.48H686.77v13.48h23.1Z" transform="translate(-249.47 -215)"/><circle class="cls-2" cx="113.53" cy="37" r="30"/><line class="cls-2" x1="135.13" y1="14.8" x2="90.73" y2="59.2"/></svg>